<svg width="27" height="27" viewBox="0 0 27 27" fill="none" xmlns="http://www.w3.org/2000/svg">
<path d="M13.5003 0C9.08553 0 5.46753 3.6072 5.46753 8.00982C5.46753 9.71568 6.01239 11.3011 6.93444 12.6041L12.5199 22.2602C13.3021 23.2821 13.8221 23.088 14.4726 22.2062L20.6334 11.7221C20.7576 11.4969 20.8554 11.2571 20.9404 11.0122C21.3312 10.0595 21.5323 9.0396 21.5323 8.00982C21.5325 3.6072 17.9156 0 13.5003 0ZM13.5003 3.753C15.8779 3.753 17.7685 5.63922 17.7685 8.00982C17.7685 10.3804 15.8779 12.2661 13.5003 12.2661C11.1229 12.2661 9.2316 10.381 9.2316 8.01009C9.2316 5.63922 11.1229 3.75327 13.5 3.75327" fill="white"/>
<path d="M18.6065 13.2051L18.5936 13.2391L18.6049 13.208L18.6065 13.2051ZM9.18163 18.6453C5.36761 19.1842 2.70001 20.4735 2.70001 22.3713C2.70001 24.9277 7.15717 26.9999 13.5 26.9999C19.8429 26.9999 24.3 24.9277 24.3 22.3713C24.3 20.4735 21.6327 19.1842 17.8189 18.6453L17.2905 19.5449C20.165 19.9437 22.14 20.7818 22.14 21.7544C22.14 23.1179 18.2717 24.223 13.5 24.223C8.7283 24.223 4.86001 23.1179 4.86001 21.7544C4.85974 20.7851 6.82183 19.9478 9.70516 19.5474L9.18163 18.6453Z" fill="white"/>
</svg>
