<svg width="60" height="55" viewBox="0 0 60 55" fill="none" xmlns="http://www.w3.org/2000/svg">
<path d="M27.3211 11.2521L30.0004 16.5669L32.679 11.2517C35.2944 6.06206 39.1854 3 44.0633 3C51.0484 3 57 10.1497 57 18.9653C57 28.0968 50.4226 36.3334 43.0569 42.5951C39.4547 45.6575 35.8375 48.0992 33.1139 49.7772C31.8217 50.5734 30.7379 51.1931 29.962 51.6215C29.1904 51.2167 28.117 50.6314 26.8388 49.876C24.1224 48.2708 20.5149 45.9173 16.9229 42.9178C9.60319 36.8056 3 28.5658 3 18.9653C3 10.1487 8.95273 3 15.9383 3C20.8144 3 24.7039 6.06019 27.3211 11.2521Z" fill="#AEDCEB" stroke="#AEDCEB" stroke-width="6"/>
</svg>
