<svg width="40" height="40" viewBox="0 0 40 40" fill="none" xmlns="http://www.w3.org/2000/svg">
<circle cx="20" cy="20" r="20" fill="white"/>
<path d="M10 17.2068C10 13.9864 12.2422 11 15.3128 11C17.4433 11 19.0239 12.3394 20 14.2405C20.9756 12.3399 22.5567 11 24.6878 11C27.7583 11 30 13.9869 30 17.2068C30 24.0998 20 29 20 29C20 29 10 24.3962 10 17.2068Z" fill="#F1F1F1"/>
<path d="M17.3312 15.6108L20.0004 20.8094L22.6689 15.6105C23.3197 14.3427 24.0426 14 24.6878 14C25.1815 14 25.7049 14.2254 26.1774 14.8005C26.6667 15.3959 27 16.2692 27 17.2068C27 19.2305 25.4522 21.4031 23.0776 23.3851C21.9759 24.3047 20.8588 25.0461 20.0098 25.5597C19.9949 25.5687 19.9801 25.5776 19.9655 25.5865C19.958 25.5821 19.9505 25.5778 19.943 25.5735C19.1011 25.085 17.9936 24.3744 16.902 23.4795C14.574 21.5708 13 19.3946 13 17.2068C13 16.269 13.3334 15.3959 13.8227 14.8005C14.2953 14.2254 14.8188 14 15.3128 14C15.9572 14 16.6798 14.342 17.3312 15.6108Z" stroke="#88AAC8" stroke-opacity="0.8" stroke-width="6"/>
</svg>
