<svg width="108" height="108" viewBox="0 0 108 108" fill="none" xmlns="http://www.w3.org/2000/svg">
<g filter="url(#filter0_f_392_5)">
<circle cx="54" cy="54" r="50" fill="white"/>
<circle cx="54" cy="54" r="49.5" stroke="#456EA1"/>
</g>
<path d="M73.1203 34.6781C73.8186 33.8358 74.2049 32.7078 74.1962 31.5368C74.1875 30.3659 73.7843 29.2458 73.0736 28.4178C72.3628 27.5898 71.4014 27.1201 70.3963 27.1099C69.3912 27.0997 68.4229 27.5499 67.6999 28.3634L54.1453 44.1547L40.5906 28.3634C40.237 27.9368 39.814 27.5966 39.3463 27.3626C38.8786 27.1285 38.3756 27.0053 37.8666 27.0002C37.3577 26.995 36.8529 27.108 36.3818 27.3326C35.9107 27.5571 35.4827 27.8887 35.1228 28.308C34.7628 28.7273 34.4782 29.226 34.2855 29.7748C34.0927 30.3236 33.9957 30.9117 34.0001 31.5047C34.0046 32.0977 34.1103 32.6837 34.3112 33.2285C34.5121 33.7734 34.8041 34.2662 35.1703 34.6781L48.7249 50.4694L35.1703 66.2608C34.8041 66.6727 34.5121 67.1655 34.3112 67.7104C34.1103 68.2552 34.0046 68.8412 34.0001 69.4342C33.9957 70.0272 34.0927 70.6152 34.2855 71.1641C34.4782 71.7129 34.7628 72.2115 35.1228 72.6309C35.4827 73.0502 35.9107 73.3818 36.3818 73.6063C36.8529 73.8309 37.3577 73.9439 37.8666 73.9387C38.3756 73.9336 38.8786 73.8104 39.3463 73.5763C39.814 73.3423 40.237 73.002 40.5906 72.5755L54.1453 56.7842L67.6999 72.5755C68.0536 73.002 68.4765 73.3423 68.9442 73.5763C69.4119 73.8104 69.9149 73.9336 70.4239 73.9387C70.9329 73.9439 71.4377 73.8309 71.9088 73.6063C72.3799 73.3818 72.8079 73.0502 73.1678 72.6309C73.5277 72.2115 73.8123 71.7129 74.0051 71.1641C74.1978 70.6152 74.2948 70.0272 74.2904 69.4342C74.286 68.8412 74.1802 68.2552 73.9793 67.7104C73.7784 67.1655 73.4864 66.6727 73.1203 66.2608L59.5656 50.4694L73.1203 34.6781Z" fill="#809FC3"/>
<defs>
<filter id="filter0_f_392_5" x="0" y="0" width="108" height="108" filterUnits="userSpaceOnUse" color-interpolation-filters="sRGB">
<feFlood flood-opacity="0" result="BackgroundImageFix"/>
<feBlend mode="normal" in="SourceGraphic" in2="BackgroundImageFix" result="shape"/>
<feGaussianBlur stdDeviation="2" result="effect1_foregroundBlur_392_5"/>
</filter>
</defs>
</svg>
